<mxfile host="Electron" modified="2023-05-26T19:27:30.530Z" agent="Mozilla/5.0 (Macintosh; Intel Mac OS X 10_15_7) AppleWebKit/537.36 (KHTML, like Gecko) draw.io/21.2.8 Chrome/112.0.5615.165 Electron/24.2.0 Safari/537.36" etag="ZGECoVEs-FKMQSOtJsRA" version="21.2.8" type="device">
  <diagram name="Page-1" id="6ZUhDUQ7tsNWZQHeJ1ob">
    <mxGraphModel dx="1466" dy="953" grid="1" gridSize="10" guides="1" tooltips="1" connect="1" arrows="1" fold="1" page="1" pageScale="1" pageWidth="1100" pageHeight="850" math="0" shadow="0">
      <root>
        <mxCell id="0" />
        <mxCell id="1" parent="0" />
        <mxCell id="uyAe7cKud4_9OgtSZVAR-30" value="" style="rounded=0;whiteSpace=wrap;html=1;strokeColor=none;" vertex="1" parent="1">
          <mxGeometry x="70" y="80" width="950" height="730" as="geometry" />
        </mxCell>
        <mxCell id="uyAe7cKud4_9OgtSZVAR-26" value="&lt;font style=&quot;font-size: 14px;&quot;&gt;&lt;b&gt;Playground (Simulation)&lt;/b&gt;&lt;/font&gt;" style="rounded=1;whiteSpace=wrap;html=1;verticalAlign=top;fillColor=#f5f5f5;fontColor=#333333;strokeColor=#666666;sketch=1;curveFitting=1;jiggle=2;" vertex="1" parent="1">
          <mxGeometry x="90" y="390" width="910" height="380" as="geometry" />
        </mxCell>
        <mxCell id="uyAe7cKud4_9OgtSZVAR-20" value="&lt;font style=&quot;font-size: 14px;&quot;&gt;&lt;b&gt;Peripherial&lt;/b&gt;&lt;/font&gt;" style="rounded=1;whiteSpace=wrap;html=1;fillColor=#dae8fc;strokeColor=#6c8ebf;verticalAlign=top;sketch=1;curveFitting=1;jiggle=2;" vertex="1" parent="1">
          <mxGeometry x="635" y="430" width="340" height="300" as="geometry" />
        </mxCell>
        <mxCell id="uyAe7cKud4_9OgtSZVAR-18" value="&lt;font style=&quot;font-size: 14px;&quot;&gt;&lt;b&gt;Board&lt;/b&gt;&lt;/font&gt;" style="rounded=1;whiteSpace=wrap;html=1;fillColor=#d5e8d4;strokeColor=#82b366;verticalAlign=top;sketch=1;curveFitting=1;jiggle=2;" vertex="1" parent="1">
          <mxGeometry x="435" y="430" width="200" height="300" as="geometry" />
        </mxCell>
        <mxCell id="uyAe7cKud4_9OgtSZVAR-17" value="&lt;font style=&quot;font-size: 16px;&quot;&gt;&lt;b&gt;UC&lt;/b&gt;&lt;/font&gt;" style="rounded=1;whiteSpace=wrap;html=1;fillColor=#fff2cc;strokeColor=#d6b656;horizontal=1;verticalAlign=top;sketch=1;curveFitting=1;jiggle=2;" vertex="1" parent="1">
          <mxGeometry x="115" y="430" width="320" height="300" as="geometry" />
        </mxCell>
        <mxCell id="uyAe7cKud4_9OgtSZVAR-13" style="edgeStyle=orthogonalEdgeStyle;rounded=0;orthogonalLoop=1;jettySize=auto;html=1;exitX=0.25;exitY=1;exitDx=0;exitDy=0;entryX=1;entryY=0.5;entryDx=0;entryDy=0;sketch=1;curveFitting=1;jiggle=2;" edge="1" parent="1" source="uyAe7cKud4_9OgtSZVAR-1" target="uyAe7cKud4_9OgtSZVAR-4">
          <mxGeometry relative="1" as="geometry" />
        </mxCell>
        <mxCell id="uyAe7cKud4_9OgtSZVAR-14" style="edgeStyle=orthogonalEdgeStyle;rounded=0;orthogonalLoop=1;jettySize=auto;html=1;exitX=0.5;exitY=1;exitDx=0;exitDy=0;entryX=0.5;entryY=0;entryDx=0;entryDy=0;sketch=1;curveFitting=1;jiggle=2;" edge="1" parent="1" source="uyAe7cKud4_9OgtSZVAR-1" target="uyAe7cKud4_9OgtSZVAR-2">
          <mxGeometry relative="1" as="geometry" />
        </mxCell>
        <mxCell id="uyAe7cKud4_9OgtSZVAR-1" value="Motor" style="rounded=0;whiteSpace=wrap;html=1;sketch=1;curveFitting=1;jiggle=2;" vertex="1" parent="1">
          <mxGeometry x="655" y="465" width="130" height="70" as="geometry" />
        </mxCell>
        <mxCell id="uyAe7cKud4_9OgtSZVAR-21" style="edgeStyle=orthogonalEdgeStyle;rounded=0;orthogonalLoop=1;jettySize=auto;html=1;exitX=0;exitY=0.5;exitDx=0;exitDy=0;sketch=1;curveFitting=1;jiggle=2;" edge="1" parent="1" source="uyAe7cKud4_9OgtSZVAR-2" target="uyAe7cKud4_9OgtSZVAR-5">
          <mxGeometry relative="1" as="geometry" />
        </mxCell>
        <mxCell id="uyAe7cKud4_9OgtSZVAR-2" value="Encoder" style="rounded=0;whiteSpace=wrap;html=1;sketch=1;curveFitting=1;jiggle=2;" vertex="1" parent="1">
          <mxGeometry x="655" y="650" width="130" height="60" as="geometry" />
        </mxCell>
        <mxCell id="uyAe7cKud4_9OgtSZVAR-12" style="edgeStyle=orthogonalEdgeStyle;rounded=0;orthogonalLoop=1;jettySize=auto;html=1;exitX=1;exitY=0.5;exitDx=0;exitDy=0;entryX=0;entryY=0.5;entryDx=0;entryDy=0;sketch=1;curveFitting=1;jiggle=2;" edge="1" parent="1" source="uyAe7cKud4_9OgtSZVAR-3" target="uyAe7cKud4_9OgtSZVAR-1">
          <mxGeometry relative="1" as="geometry" />
        </mxCell>
        <mxCell id="uyAe7cKud4_9OgtSZVAR-3" value="Inverter" style="rounded=0;whiteSpace=wrap;html=1;sketch=1;curveFitting=1;jiggle=2;" vertex="1" parent="1">
          <mxGeometry x="475" y="470" width="120" height="60" as="geometry" />
        </mxCell>
        <mxCell id="uyAe7cKud4_9OgtSZVAR-11" style="edgeStyle=orthogonalEdgeStyle;rounded=0;orthogonalLoop=1;jettySize=auto;html=1;exitX=0;exitY=0.5;exitDx=0;exitDy=0;entryX=1;entryY=0.75;entryDx=0;entryDy=0;sketch=1;curveFitting=1;jiggle=2;" edge="1" parent="1" source="uyAe7cKud4_9OgtSZVAR-4" target="uyAe7cKud4_9OgtSZVAR-5">
          <mxGeometry relative="1" as="geometry" />
        </mxCell>
        <mxCell id="uyAe7cKud4_9OgtSZVAR-4" value="Current &lt;br&gt;Measurement" style="rounded=0;whiteSpace=wrap;html=1;sketch=1;curveFitting=1;jiggle=2;" vertex="1" parent="1">
          <mxGeometry x="475" y="590" width="120" height="60" as="geometry" />
        </mxCell>
        <mxCell id="uyAe7cKud4_9OgtSZVAR-9" style="edgeStyle=orthogonalEdgeStyle;rounded=0;orthogonalLoop=1;jettySize=auto;html=1;exitX=0;exitY=0.75;exitDx=0;exitDy=0;entryX=1;entryY=0.75;entryDx=0;entryDy=0;sketch=1;curveFitting=1;jiggle=2;" edge="1" parent="1" source="uyAe7cKud4_9OgtSZVAR-5" target="uyAe7cKud4_9OgtSZVAR-6">
          <mxGeometry relative="1" as="geometry" />
        </mxCell>
        <mxCell id="uyAe7cKud4_9OgtSZVAR-10" style="edgeStyle=orthogonalEdgeStyle;rounded=0;orthogonalLoop=1;jettySize=auto;html=1;exitX=1;exitY=0.25;exitDx=0;exitDy=0;entryX=0;entryY=0.5;entryDx=0;entryDy=0;sketch=1;curveFitting=1;jiggle=2;" edge="1" parent="1" source="uyAe7cKud4_9OgtSZVAR-5" target="uyAe7cKud4_9OgtSZVAR-3">
          <mxGeometry relative="1" as="geometry" />
        </mxCell>
        <mxCell id="uyAe7cKud4_9OgtSZVAR-5" value="uc peripherials" style="rounded=0;whiteSpace=wrap;html=1;sketch=1;curveFitting=1;jiggle=2;" vertex="1" parent="1">
          <mxGeometry x="295" y="530" width="120" height="60" as="geometry" />
        </mxCell>
        <mxCell id="uyAe7cKud4_9OgtSZVAR-8" style="edgeStyle=orthogonalEdgeStyle;rounded=0;orthogonalLoop=1;jettySize=auto;html=1;exitX=1;exitY=0.25;exitDx=0;exitDy=0;entryX=0;entryY=0.25;entryDx=0;entryDy=0;sketch=1;curveFitting=1;jiggle=2;" edge="1" parent="1" source="uyAe7cKud4_9OgtSZVAR-6" target="uyAe7cKud4_9OgtSZVAR-5">
          <mxGeometry relative="1" as="geometry" />
        </mxCell>
        <mxCell id="uyAe7cKud4_9OgtSZVAR-6" value="Core&lt;br&gt;(Firmware)" style="rounded=0;whiteSpace=wrap;html=1;sketch=1;curveFitting=1;jiggle=2;" vertex="1" parent="1">
          <mxGeometry x="135" y="530" width="120" height="60" as="geometry" />
        </mxCell>
        <mxCell id="uyAe7cKud4_9OgtSZVAR-16" style="edgeStyle=orthogonalEdgeStyle;rounded=0;orthogonalLoop=1;jettySize=auto;html=1;exitX=0;exitY=0.5;exitDx=0;exitDy=0;entryX=1;entryY=0.5;entryDx=0;entryDy=0;sketch=1;curveFitting=1;jiggle=2;" edge="1" parent="1" source="uyAe7cKud4_9OgtSZVAR-15" target="uyAe7cKud4_9OgtSZVAR-1">
          <mxGeometry relative="1" as="geometry" />
        </mxCell>
        <mxCell id="uyAe7cKud4_9OgtSZVAR-15" value="load" style="rounded=0;whiteSpace=wrap;html=1;sketch=1;curveFitting=1;jiggle=2;" vertex="1" parent="1">
          <mxGeometry x="825" y="470" width="120" height="60" as="geometry" />
        </mxCell>
        <mxCell id="uyAe7cKud4_9OgtSZVAR-27" style="edgeStyle=orthogonalEdgeStyle;rounded=0;orthogonalLoop=1;jettySize=auto;html=1;exitX=0.5;exitY=1;exitDx=0;exitDy=0;entryX=0.5;entryY=0;entryDx=0;entryDy=0;startArrow=classic;startFill=1;strokeWidth=2;sketch=1;curveFitting=1;jiggle=2;" edge="1" parent="1" source="uyAe7cKud4_9OgtSZVAR-22" target="uyAe7cKud4_9OgtSZVAR-26">
          <mxGeometry relative="1" as="geometry" />
        </mxCell>
        <mxCell id="uyAe7cKud4_9OgtSZVAR-22" value="&lt;b&gt;&lt;font style=&quot;font-size: 14px;&quot;&gt;ROS2&lt;/font&gt;&lt;/b&gt;" style="rounded=0;whiteSpace=wrap;html=1;fillColor=#f5f5f5;fontColor=#333333;strokeColor=#666666;sketch=1;curveFitting=1;jiggle=2;" vertex="1" parent="1">
          <mxGeometry x="155" y="270" width="780" height="60" as="geometry" />
        </mxCell>
        <mxCell id="uyAe7cKud4_9OgtSZVAR-25" style="edgeStyle=orthogonalEdgeStyle;rounded=0;orthogonalLoop=1;jettySize=auto;html=1;exitX=0.5;exitY=1;exitDx=0;exitDy=0;startArrow=classic;startFill=1;strokeWidth=2;sketch=1;curveFitting=1;jiggle=2;" edge="1" parent="1" source="uyAe7cKud4_9OgtSZVAR-23" target="uyAe7cKud4_9OgtSZVAR-22">
          <mxGeometry relative="1" as="geometry" />
        </mxCell>
        <mxCell id="uyAe7cKud4_9OgtSZVAR-23" value="&lt;font style=&quot;font-size: 14px;&quot;&gt;&lt;b&gt;UI&lt;/b&gt;&lt;/font&gt;" style="rounded=0;whiteSpace=wrap;html=1;fillColor=#f5f5f5;fontColor=#333333;strokeColor=#666666;sketch=1;curveFitting=1;jiggle=2;" vertex="1" parent="1">
          <mxGeometry x="460" y="110" width="170" height="100" as="geometry" />
        </mxCell>
      </root>
    </mxGraphModel>
  </diagram>
</mxfile>
